HIERARCHY
ROOT mixamorig:Hips
{
	OFFSET 0.000000 201.639420 0.000000
	CHANNELS 6 Xposition Yposition Zposition Xrotation Yrotation Zrotation
	JOINT mixamorig:Spine
	{
		OFFSET 0.006200 19.524994 -2.481800
		CHANNELS 3 Xrotation Yrotation Zrotation
		JOINT mixamorig:Spine1
		{
			OFFSET -0.000900 22.835007 -2.825400
			CHANNELS 3 Xrotation Yrotation Zrotation
			JOINT mixamorig:Spine2
			{
				OFFSET -0.020600 26.552490 -3.193300
				CHANNELS 3 Xrotation Yrotation Zrotation
				JOINT mixamorig:Neck
				{
					OFFSET -0.060000 30.701813 1.352200
					CHANNELS 3 Xrotation Yrotation Zrotation
					JOINT mixamorig:Head
					{
						OFFSET -0.087200 22.547607 3.670900
						CHANNELS 3 Xrotation Yrotation Zrotation
						JOINT mixamorig:HeadTop_End
						{
							OFFSET -0.830600 40.355194 7.893500
							CHANNELS 3 Xrotation Yrotation Zrotation
							End Site
							{
								OFFSET 0.000000 30.592346 0.000000
							}
						}
						JOINT mixamorig:RightEye
						{
							OFFSET -6.302100 18.118591 16.197100
							CHANNELS 3 Xrotation Yrotation Zrotation
							End Site
							{
								OFFSET 0.000000 30.592346 0.000000
							}
						}
						JOINT mixamorig:LeftEye
						{
							OFFSET 6.741500 18.382690 16.401899
							CHANNELS 3 Xrotation Yrotation Zrotation
							End Site
							{
								OFFSET 0.000000 30.592346 0.000000
							}
						}
					}
				}
				JOINT mixamorig:LeftShoulder
				{
					OFFSET 11.924900 18.230499 1.425400
					CHANNELS 3 Xrotation Yrotation Zrotation
					JOINT mixamorig:LeftArm
					{
						OFFSET 25.435989 -0.697632 -5.229300
						CHANNELS 3 Xrotation Yrotation Zrotation
						JOINT mixamorig:LeftForeArm
						{
							OFFSET 54.684776 0.000000 0.000000
							CHANNELS 3 Xrotation Yrotation Zrotation
							JOINT mixamorig:LeftHand
							{
								OFFSET 55.098175 0.000000 0.000000
								CHANNELS 3 Xrotation Yrotation Zrotation
								JOINT mixamorig:LeftHandMiddle1
								{
									OFFSET 23.369751 0.000000 0.000000
									CHANNELS 3 Xrotation Yrotation Zrotation
									JOINT mixamorig:LeftHandMiddle2
									{
										OFFSET 6.378677 0.000000 0.000000
										CHANNELS 3 Xrotation Yrotation Zrotation
										JOINT mixamorig:LeftHandMiddle3
										{
											OFFSET 6.148331 0.000000 0.000000
											CHANNELS 3 Xrotation Yrotation Zrotation
											JOINT mixamorig:LeftHandMiddle4
											{
												OFFSET 6.582504 0.000000 0.000000
												CHANNELS 3 Xrotation Yrotation Zrotation
												End Site
												{
													OFFSET -1.168900 6.395691 1.028606
												}
											}
										}
									}
								}
								JOINT mixamorig:LeftHandThumb1
								{
									OFFSET 7.235672 -3.848206 5.434273
									CHANNELS 3 Xrotation Yrotation Zrotation
									JOINT mixamorig:LeftHandThumb2
									{
										OFFSET 6.568451 -3.792297 3.792300
										CHANNELS 3 Xrotation Yrotation Zrotation
										JOINT mixamorig:LeftHandThumb3
										{
											OFFSET 6.063080 -3.500519 3.500518
											CHANNELS 3 Xrotation Yrotation Zrotation
											JOINT mixamorig:LeftHandThumb4
											{
												OFFSET 4.793182 -2.767334 2.767349
												CHANNELS 3 Xrotation Yrotation Zrotation
												End Site
												{
													OFFSET 0.101639 6.054260 1.275483
												}
											}
										}
									}
								}
								JOINT mixamorig:LeftHandIndex1
								{
									OFFSET 23.101074 -0.309540 4.992809
									CHANNELS 3 Xrotation Yrotation Zrotation
									JOINT mixamorig:LeftHandIndex2
									{
										OFFSET 6.226883 0.000000 0.000000
										CHANNELS 3 Xrotation Yrotation Zrotation
										JOINT mixamorig:LeftHandIndex3
										{
											OFFSET 6.094330 0.000000 0.000000
											CHANNELS 3 Xrotation Yrotation Zrotation
											JOINT mixamorig:LeftHandIndex4
											{
												OFFSET 5.482605 0.000000 0.000000
												CHANNELS 3 Xrotation Yrotation Zrotation
												End Site
												{
													OFFSET -1.427902 5.233032 0.797164
												}
											}
										}
									}
								}
								JOINT mixamorig:LeftHandRing1
								{
									OFFSET 22.299240 0.021149 -3.964172
									CHANNELS 3 Xrotation Yrotation Zrotation
									JOINT mixamorig:LeftHandRing2
									{
										OFFSET 6.321869 0.000000 0.000000
										CHANNELS 3 Xrotation Yrotation Zrotation
										JOINT mixamorig:LeftHandRing3
										{
											OFFSET 5.899796 0.000000 0.000000
											CHANNELS 3 Xrotation Yrotation Zrotation
											JOINT mixamorig:LeftHandRing4
											{
												OFFSET 6.517899 0.000000 0.000000
												CHANNELS 3 Xrotation Yrotation Zrotation
												End Site
												{
													OFFSET -1.637299 6.232208 0.980890
												}
											}
										}
									}
								}
								JOINT mixamorig:LeftHandPinky1
								{
									OFFSET 20.463791 -0.302338 -8.562233
									CHANNELS 3 Xrotation Yrotation Zrotation
									JOINT mixamorig:LeftHandPinky2
									{
										OFFSET 6.908646 0.000000 0.000000
										CHANNELS 3 Xrotation Yrotation Zrotation
										JOINT mixamorig:LeftHandPinky3
										{
											OFFSET 4.622849 0.000000 0.000000
											CHANNELS 3 Xrotation Yrotation Zrotation
											JOINT mixamorig:LeftHandPinky4
											{
												OFFSET 5.216080 0.000000 0.000000
												CHANNELS 3 Xrotation Yrotation Zrotation
												End Site
												{
													OFFSET -0.606308 5.116241 0.814926
												}
											}
										}
									}
								}
							}
						}
					}
				}
				JOINT mixamorig:RightShoulder
				{
					OFFSET -12.001300 18.284088 1.348900
					CHANNELS 3 Xrotation Yrotation Zrotation
					JOINT mixamorig:RightArm
					{
						OFFSET -25.308500 -0.751312 -5.164599
						CHANNELS 3 Xrotation Yrotation Zrotation
						JOINT mixamorig:RightForeArm
						{
							OFFSET -54.684429 0.000000 0.000000
							CHANNELS 3 Xrotation Yrotation Zrotation
							JOINT mixamorig:RightHand
							{
								OFFSET -55.150291 0.000000 0.000000
								CHANNELS 3 Xrotation Yrotation Zrotation
								JOINT mixamorig:RightHandMiddle1
								{
									OFFSET -23.317566 0.000000 0.000000
									CHANNELS 3 Xrotation Yrotation Zrotation
									JOINT mixamorig:RightHandMiddle2
									{
										OFFSET -6.378403 0.000000 0.000000
										CHANNELS 3 Xrotation Yrotation Zrotation
										JOINT mixamorig:RightHandMiddle3
										{
											OFFSET -6.148193 0.000000 0.000000
											CHANNELS 3 Xrotation Yrotation Zrotation
											JOINT mixamorig:RightHandMiddle4
											{
												OFFSET -6.583389 0.000000 0.000000
												CHANNELS 3 Xrotation Yrotation Zrotation
												End Site
												{
													OFFSET 1.171692 6.395905 1.029786
												}
											}
										}
									}
								}
								JOINT mixamorig:RightHandThumb1
								{
									OFFSET -7.190521 -3.860474 5.435846
									CHANNELS 3 Xrotation Yrotation Zrotation
									JOINT mixamorig:RightHandThumb2
									{
										OFFSET -6.567429 -3.791718 3.791708
										CHANNELS 3 Xrotation Yrotation Zrotation
										JOINT mixamorig:RightHandThumb3
										{
											OFFSET -6.062469 -3.500153 3.500166
											CHANNELS 3 Xrotation Yrotation Zrotation
											JOINT mixamorig:RightHandThumb4
											{
												OFFSET -4.792618 -2.767029 2.767022
												CHANNELS 3 Xrotation Yrotation Zrotation
												End Site
												{
													OFFSET -0.100327 6.053253 1.276754
												}
											}
										}
									}
								}
								JOINT mixamorig:RightHandIndex1
								{
									OFFSET -23.048981 -0.310791 4.992554
									CHANNELS 3 Xrotation Yrotation Zrotation
									JOINT mixamorig:RightHandIndex2
									{
										OFFSET -6.227539 0.000000 0.000000
										CHANNELS 3 Xrotation Yrotation Zrotation
										JOINT mixamorig:RightHandIndex3
										{
											OFFSET -6.095047 0.000000 0.000000
											CHANNELS 3 Xrotation Yrotation Zrotation
											JOINT mixamorig:RightHandIndex4
											{
												OFFSET -5.484772 0.000000 0.000000
												CHANNELS 3 Xrotation Yrotation Zrotation
												End Site
												{
													OFFSET 1.420593 5.237305 0.797056
												}
											}
										}
									}
								}
								JOINT mixamorig:RightHandRing1
								{
									OFFSET -22.246323 0.020569 -3.963762
									CHANNELS 3 Xrotation Yrotation Zrotation
									JOINT mixamorig:RightHandRing2
									{
										OFFSET -6.322128 0.000000 0.000000
										CHANNELS 3 Xrotation Yrotation Zrotation
										JOINT mixamorig:RightHandRing3
										{
											OFFSET -5.900024 0.000000 0.000000
											CHANNELS 3 Xrotation Yrotation Zrotation
											JOINT mixamorig:RightHandRing4
											{
												OFFSET -6.518356 0.000000 0.000000
												CHANNELS 3 Xrotation Yrotation Zrotation
												End Site
												{
													OFFSET 1.636398 6.232697 0.982186
												}
											}
										}
									}
								}
								JOINT mixamorig:RightHandPinky1
								{
									OFFSET -20.411011 -0.303314 -8.561701
									CHANNELS 3 Xrotation Yrotation Zrotation
									JOINT mixamorig:RightHandPinky2
									{
										OFFSET -6.907349 0.000000 0.000000
										CHANNELS 3 Xrotation Yrotation Zrotation
										JOINT mixamorig:RightHandPinky3
										{
											OFFSET -4.623840 0.000000 0.000000
											CHANNELS 3 Xrotation Yrotation Zrotation
											JOINT mixamorig:RightHandPinky4
											{
												OFFSET -5.218353 0.000000 0.000000
												CHANNELS 3 Xrotation Yrotation Zrotation
												End Site
												{
													OFFSET 0.602097 5.118835 0.816273
												}
											}
										}
									}
								}
							}
						}
					}
				}
			}
		}
	}
	JOINT mixamorig:LeftUpLeg
	{
		OFFSET 18.168400 -13.561905 -0.039000
		CHANNELS 3 Xrotation Yrotation Zrotation
		JOINT mixamorig:LeftLeg
		{
			OFFSET 0.577358 -80.825211 -3.695000
			CHANNELS 3 Xrotation Yrotation Zrotation
			JOINT mixamorig:LeftFoot
			{
				OFFSET -0.577356 -83.370262 -6.520700
				CHANNELS 3 Xrotation Yrotation Zrotation
				JOINT mixamorig:LeftToeBase
				{
					OFFSET 0.750401 -20.798306 25.135401
					CHANNELS 3 Xrotation Yrotation Zrotation
					JOINT mixamorig:LeftToe_End
					{
						OFFSET -0.000500 0.001200 19.917799
						CHANNELS 3 Xrotation Yrotation Zrotation
						End Site
						{
							OFFSET 0.000000 19.917805 0.000000
						}
					}
				}
			}
		}
	}
	JOINT mixamorig:RightUpLeg
	{
		OFFSET -18.162500 -13.585098 -0.041000
		CHANNELS 3 Xrotation Yrotation Zrotation
		JOINT mixamorig:RightLeg
		{
			OFFSET -0.595024 -80.945297 -3.631900
			CHANNELS 3 Xrotation Yrotation Zrotation
			JOINT mixamorig:RightFoot
			{
				OFFSET 0.595024 -83.218193 -6.561200
				CHANNELS 3 Xrotation Yrotation Zrotation
				JOINT mixamorig:RightToeBase
				{
					OFFSET -0.753601 -20.807106 25.115000
					CHANNELS 3 Xrotation Yrotation Zrotation
					JOINT mixamorig:RightToe_End
					{
						OFFSET 0.000299 0.001700 19.918200
						CHANNELS 3 Xrotation Yrotation Zrotation
						End Site
						{
							OFFSET 0.000000 19.918203 0.000000
						}
					}
				}
			}
		}
	}
}
MOTION
Frames: 4
Frame Time: 0.033333
0.648514 202.133209 -2.852979 -5.475521 -4.693138 -1.724667 2.344308 0.191157 0.707076 4.686837 0.416963 1.261558 4.686834 0.416962 1.261558 -19.420670 0.185461 -0.361284 13.487788 3.562873 -1.380858 0.000000 -0.000000 -0.000000 0.000000 -0.000000 -0.000000 0.000000 -0.000000 -0.000000 12.672976 7.217831 -6.412528 0.810678 -36.515100 -69.772916 0.000006 -27.887811 0.000001 -19.641691 11.092935 16.563916 -1.739595 1.894140 -38.750843 -1.538282 -2.965129 -47.704244 0.000002 0.000000 -0.000002 0.000002 0.000001 -0.000001 9.609210 12.467741 3.753371 -2.000611 5.419438 0.056566 -0.000001 -0.000005 0.000010 -0.000002 0.000002 0.000002 0.918529 4.161487 -38.479838 3.112395 -0.947353 -32.781770 -0.000001 0.000002 0.000007 0.000003 -0.000001 0.000001 -6.604555 -1.899759 -38.941644 -5.674148 -4.277496 -66.812542 0.000009 0.000002 0.000006 -0.000001 -0.000000 0.000002 -7.505348 -1.648741 -44.876665 -5.905527 -6.143991 -71.734424 0.000000 -0.000000 0.000000 0.000000 -0.000000 0.000002 11.546220 8.398539 -1.489060 -5.154673 20.067699 72.643980 0.000016 31.316721 -0.000024 5.524564 -14.215632 -12.178569 -2.176627 -4.116149 39.703835 -13.869642 -15.589198 50.034609 0.000001 -0.000003 -0.000003 -0.000001 0.000001 0.000004 4.312325 -1.679615 -0.685038 -1.883807 -6.256823 -0.767901 -0.000001 0.000007 -0.000011 0.000000 -0.000001 0.000004 -1.127528 -6.783480 26.665496 3.205481 0.430063 40.482132 -0.000001 -0.000008 -0.000001 0.000001 0.000000 -0.000002 -1.947179 0.926917 43.129069 -5.186530 5.343014 51.959868 0.000001 -0.000003 0.000001 -0.000003 0.000003 0.000001 -5.194377 0.069834 48.565923 -8.841265 8.926179 65.312366 -0.000001 0.000003 -0.000000 -0.000001 0.000003 -0.000001 -4.416636 13.613114 1.888572 6.457274 -0.024737 -0.254095 2.813130 0.724982 1.937174 0.002989 -0.026199 0.062610 -0.000000 0.000000 0.000000 -2.973858 -4.152557 -0.432846 12.349184 -0.035544 0.424646 -3.656352 -15.898423 0.691074 -0.020498 -0.187011 0.446698 -0.000000 -0.000001 0.000000 
0.655030 202.132004 -2.846014 -5.481669 -4.702864 -1.725973 2.345968 0.192097 0.707925 4.690142 0.418905 1.263336 4.690143 0.418904 1.263336 -19.380134 0.186944 -0.370414 13.759829 3.564255 -1.406366 -0.000000 -0.000000 -0.000000 -0.000000 -0.000000 -0.000000 -0.000000 -0.000000 -0.000000 12.674473 7.220593 -6.420119 0.801513 -36.487233 -69.789999 -0.000169 -27.858270 0.000082 -19.639176 11.125439 16.590535 -1.733232 1.908481 -38.739576 -1.537829 -2.964633 -47.695389 0.000001 0.000000 0.000001 -0.000001 0.000002 0.000003 9.633731 12.542155 3.740568 -2.053873 5.316568 0.080619 0.000004 -0.000003 0.000006 0.000003 0.000000 -0.000001 0.912388 4.148724 -38.403627 3.112143 -0.947967 -32.797660 0.000002 0.000004 0.000005 -0.000000 0.000000 -0.000001 -6.587598 -1.878125 -38.909515 -5.676144 -4.277127 -66.839330 0.000010 0.000002 0.000008 -0.000001 0.000000 -0.000002 -7.499908 -1.642957 -44.852838 -5.905621 -6.143979 -71.735373 -0.000001 0.000000 0.000000 -0.000001 0.000000 0.000001 11.546190 8.397251 -1.486932 -5.175281 20.040077 72.638488 -0.000337 31.286248 -0.000049 5.522828 -14.222484 -12.195443 -2.176816 -4.115391 39.712455 -13.869750 -15.589114 50.034155 -0.000002 -0.000004 -0.000007 -0.000001 -0.000002 0.000004 4.303222 -1.656529 -0.672806 -1.883369 -6.257582 -0.767944 0.000002 0.000008 -0.000009 -0.000001 0.000001 0.000001 -1.121394 -6.799797 26.688331 3.205461 0.430097 40.483843 -0.000002 -0.000009 -0.000003 -0.000002 0.000000 -0.000003 -1.950573 0.935717 43.070961 -5.182890 5.342136 51.920212 -0.000002 -0.000002 0.000006 -0.000002 -0.000000 -0.000002 -5.192424 0.068700 48.551409 -8.841402 8.926170 65.313233 0.000000 0.000000 0.000001 0.000001 0.000000 0.000001 -4.411862 13.611764 1.887566 6.467948 -0.024543 -0.254454 2.803178 0.736131 1.941802 0.002989 -0.026198 0.062610 -0.000000 0.000001 -0.000000 -2.966942 -4.137310 -0.433530 12.349931 -0.033572 0.425216 -3.654243 -15.905403 0.697825 -0.020498 -0.187015 0.446698 0.000000 0.000002 -0.000000 
0.661339 202.131531 -2.844061 -5.485178 -4.707884 -1.729243 2.347898 0.193747 0.709288 4.693982 0.422288 1.265830 4.693983 0.422290 1.265830 -19.334375 0.169274 -0.381043 13.957261 3.461786 -1.392624 0.000000 -0.000000 0.000000 0.000000 -0.000000 0.000000 0.000000 -0.000000 0.000000 12.675122 7.226045 -6.421194 0.786826 -36.469208 -69.818282 -0.000277 -27.833955 0.000171 -19.653197 11.143917 16.607590 -1.738144 1.894564 -38.672401 -1.538340 -2.965174 -47.705122 0.000003 -0.000002 -0.000001 -0.000001 -0.000001 0.000001 9.632232 12.537791 3.742243 -2.088429 5.249657 0.096216 0.000003 -0.000002 0.000008 0.000001 -0.000002 -0.000001 0.907839 4.136142 -38.393074 3.112515 -0.947111 -32.775349 0.000001 0.000006 0.000008 -0.000000 -0.000000 -0.000001 -6.587257 -1.876074 -38.917086 -5.676364 -4.277085 -66.842253 0.000010 0.000003 0.000007 -0.000000 -0.000000 -0.000002 -7.491390 -1.633853 -44.815665 -5.905726 -6.143964 -71.736418 -0.000002 -0.000000 -0.000000 -0.000001 -0.000000 0.000002 11.546098 8.399440 -1.487508 -5.209306 20.013752 72.644806 -0.000519 31.235814 -0.000172 5.549516 -14.219146 -12.199677 -2.178203 -4.112564 39.714504 -13.874629 -15.585814 50.015898 -0.000001 -0.000001 -0.000007 -0.000001 -0.000002 0.000003 4.289557 -1.623446 -0.663172 -1.871668 -6.278067 -0.769024 0.000006 0.000008 -0.000012 -0.000001 0.000001 0.000001 -1.114988 -6.815791 26.715865 3.206630 0.426988 40.315595 0.000002 -0.000005 -0.000001 -0.000002 0.000001 -0.000001 -1.951289 0.932536 43.131883 -5.183079 5.342182 51.922449 0.000001 -0.000002 0.000004 -0.000000 0.000001 -0.000001 -5.190065 0.065627 48.549330 -8.841779 8.926172 65.315808 0.000001 0.000004 -0.000001 0.000001 0.000002 -0.000001 -4.412086 13.598832 1.887262 6.478800 -0.025315 -0.254946 2.791500 0.753747 1.950604 0.002989 -0.026199 0.062610 -0.000000 0.000001 -0.000000 -2.964261 -4.152448 -0.436405 12.350678 -0.033340 0.425325 -3.648670 -15.886159 0.703926 -0.020498 -0.187015 0.446698 0.000000 0.000001 0.000000 
0.667555 202.131912 -2.845648 -5.480987 -4.703022 -1.732397 2.348405 0.195745 0.710442 4.694968 0.426329 1.267763 4.694967 0.426330 1.267762 -19.271536 0.115484 -0.398905 14.063188 3.160817 -1.317307 -0.000000 -0.000000 -0.000000 -0.000000 -0.000000 -0.000000 -0.000000 -0.000000 -0.000000 12.674412 7.233003 -6.415244 0.774462 -36.463651 -69.847973 -0.000114 -27.823718 0.000171 -19.673243 11.145403 16.608667 -1.742620 1.886158 -38.725646 -1.537839 -2.964646 -47.695631 0.000002 -0.000001 -0.000002 0.000001 0.000001 -0.000002 9.627301 12.522975 3.745802 -2.063617 5.297689 0.084995 0.000005 -0.000001 0.000010 -0.000001 0.000000 0.000001 0.915705 4.154438 -38.462469 3.112693 -0.946658 -32.763591 0.000002 0.000005 0.000007 0.000000 -0.000001 -0.000001 -6.586514 -1.870445 -38.939940 -5.677268 -4.276914 -66.854472 0.000009 0.000003 0.000006 0.000000 0.000000 -0.000000 -7.502337 -1.643678 -44.871894 -5.905823 -6.143936 -71.737491 -0.000003 -0.000000 -0.000001 -0.000001 0.000000 0.000001 11.545526 8.403662 -1.487365 -5.249944 19.987941 72.664484 -0.000345 31.165689 -0.000339 5.600471 -14.192652 -12.175697 -2.169719 -4.131637 39.663100 -13.867056 -15.590947 50.044253 -0.000001 0.000002 -0.000004 0.000001 -0.000002 0.000001 4.300095 -1.647865 -0.664440 -1.878645 -6.265861 -0.768399 -0.000001 0.000010 -0.000004 0.000002 -0.000001 0.000002 -1.123706 -6.791879 26.681702 3.206496 0.427377 40.335621 0.000000 -0.000005 -0.000006 -0.000003 0.000000 -0.000002 -1.944325 0.924581 43.104545 -5.183557 5.342293 51.927626 0.000003 -0.000003 0.000002 -0.000001 0.000001 -0.000001 -5.184569 0.058592 48.543217 -8.842441 8.926159 65.320057 -0.000001 0.000000 0.000001 0.000000 -0.000002 0.000001 -4.420724 13.580586 1.886635 6.485925 -0.026620 -0.255477 2.782031 0.767632 1.960974 0.002989 -0.026199 0.062610 -0.000000 0.000001 0.000000 -2.969293 -4.169271 -0.437274 12.350296 -0.034727 0.425024 -3.643284 -15.876285 0.699413 -0.020498 -0.187016 0.446698 -0.000000 -0.000000 -0.000000 
